<?xml version="1.0" encoding="UTF-8"?>
<svg width="150px" height="150px" viewBox="0 0 150 150" version="1.1" xmlns="http://www.w3.org/2000/svg" xmlns:xlink="http://www.w3.org/1999/xlink">
    <!-- Generator: Sketch 52.3 (67297) - http://www.bohemiancoding.com/sketch -->
    <title>measure</title>
    <desc>Created with Sketch.</desc>
    <g id="measure" stroke="none" stroke-width="1" fill="none" fill-rule="evenodd">
        <g id="noun_measuring-tape_117846" transform="translate(22.000000, 41.000000)" fill="#000000" fill-rule="nonzero">
            <g id="Group">
                <path d="M102.214286,52.8888889 L68.1428571,52.8888889 L68.1428571,45.3333333 L71.9285714,45.3333333 C74.0194483,45.3333333 75.7142857,43.6418186 75.7142857,41.5555556 L75.7142857,26.4444444 C75.7142857,24.357951 74.0194483,22.6666667 71.9285714,22.6666667 L68.1428571,22.6666667 L68.1428571,17 C68.1428571,7.61112478 60.5157426,0 51.1071429,0 L17.0357143,0 C7.62711454,0 0,7.61112478 0,17 L0,51 C0,60.3888752 7.62711454,68 17.0357143,68 L68.1428571,68 L68.1428571,64.2222222 L102.214286,64.2222222 L102.214286,68 L106,68 L106,64.2222222 L106,60.4444444 L106,56.6666667 L106,52.8888889 L102.214286,52.8888889 Z M71.9285714,26.4444444 L71.9285714,41.5555556 L68.1428571,41.5555556 L68.1428571,26.4444444 L71.9285714,26.4444444 Z M17.0357143,64.2222222 C9.72954466,64.2222222 3.78571429,58.2906223 3.78571429,51 L3.78571429,17 C3.78571429,9.70914729 9.72954466,3.77777778 17.0357143,3.77777778 L51.1071429,3.77777778 C58.4133125,3.77777778 64.3571429,9.70914729 64.3571429,17 L64.3571429,26.4444444 L64.3571429,41.5555556 L64.3571429,52.8888889 L64.3571429,56.6666667 L64.3571429,60.4444444 L64.3571429,64.2222222 L17.0357143,64.2222222 Z M68.1428571,60.4444444 L68.1428571,56.6666667 L102.214286,56.6666667 L102.214286,60.4444444 L68.1428571,60.4444444 Z" id="Shape"></path>
                <path d="M34.0714286,15.1111111 C23.6175057,15.1111111 15.1428571,23.5679931 15.1428571,34 C15.1428571,44.4320069 23.6175057,52.8888889 34.0714286,52.8888889 C44.5253515,52.8888889 53,44.4320069 53,34 C53,23.5679931 44.5253515,15.1111111 34.0714286,15.1111111 Z M34.0714286,49.1111111 C25.7215534,49.1111111 18.9285714,42.3323702 18.9285714,34 C18.9285714,25.6676298 25.7215534,18.8888889 34.0714286,18.8888889 C42.4213037,18.8888889 49.2142857,25.6676298 49.2142857,34 C49.2142857,42.3323702 42.4213037,49.1111111 34.0714286,49.1111111 Z" id="Shape"></path>
            </g>
        </g>
    </g>
</svg>