<?xml version="1.0" encoding="UTF-8"?>
<svg width="80px" height="46px" viewBox="0 0 80 46" version="1.1" xmlns="http://www.w3.org/2000/svg" xmlns:xlink="http://www.w3.org/1999/xlink">
    <!-- Generator: Sketch 52.2 (67145) - http://www.bohemiancoding.com/sketch -->
    <title>noun_measure_512690</title>
    <desc>Created with Sketch.</desc>
    <g id="Page-1" stroke="none" stroke-width="1" fill="none" fill-rule="evenodd">
        <g id="Desktop_Listing" transform="translate(-109.000000, -1046.000000)" stroke="#FFFFFF" stroke-width="2">
            <g id="Blade-1-" transform="translate(81.000000, 809.000000)">
                <g id="Group">
                    <g id="noun_measure_512690" transform="translate(28.000000, 237.000000)">
                        <g id="Group">
                            <g id="Path">
                                <polygon points="1.33333333 45 78.6666667 45 78.6666667 29.1176471 1.33333333 29.1176471"></polygon>
                                <path d="M1.33333333,22.5 L1.33333333,0"></path>
                                <path d="M78.6666667,22.5 L78.6666667,0"></path>
                                <path d="M76,11.9117647 L69.3333333,3.97058824"></path>
                                <path d="M69.3333333,19.8529412 L76,11.9117647"></path>
                                <path d="M69.3333333,3.97058824 L69.3333333,19.8529412"></path>
                                <path d="M69.3333333,11.9117647 L10.6666667,11.9117647"></path>
                                <path d="M10.6666667,3.969 L10.6666667,19.8526765"></path>
                                <path d="M10.6666667,3.97058824 L4,11.9117647"></path>
                                <path d="M10.6666667,19.8529412 L4,11.9117647"></path>
                                <path d="M72.0021333,29.1176471 L72.0008,33.0882353"></path>
                                <path d="M64.0002667,29.1176471 L64.0002667,35.7352941"></path>
                                <path d="M56.0002667,33.0882353 L56.0002667,29.1176471"></path>
                                <path d="M48,29.1176471 L48,35.7352941"></path>
                                <path d="M40,29.1176471 L40,33.0882353"></path>
                                <path d="M32,29.1176471 L32,35.7352941"></path>
                                <path d="M24.0002667,29.1176471 L24.0002667,33.0882353"></path>
                                <path d="M16.0001333,29.1176471 L16.0001333,35.7352941"></path>
                                <path d="M8.00013333,29.1176471 L7.9988,33.0882353"></path>
                            </g>
                        </g>
                    </g>
                </g>
            </g>
        </g>
    </g>
</svg>