<?xml version="1.0" encoding="UTF-8"?>
<svg width="150px" height="150px" viewBox="0 0 150 150" version="1.1" xmlns="http://www.w3.org/2000/svg" xmlns:xlink="http://www.w3.org/1999/xlink">
    <!-- Generator: Sketch 52.2 (67145) - http://www.bohemiancoding.com/sketch -->
    <title>measure-purple</title>
    <desc>Created with Sketch.</desc>
    <g id="measure-purple" stroke="none" stroke-width="1" fill="none" fill-rule="evenodd">
        <g id="noun_sizes_844736" transform="translate(16.000000, 20.000000)" fill="#507BFC">
            <path d="M115.692308,0 L36.3076923,0 C34.4805231,0 33,1.3428 33,3 L33,75 C33,76.6572 34.4805231,78 36.3076923,78 L115.692308,78 C117.519477,78 119,76.6572 119,75 L119,3 C119,1.3428 117.519477,0 115.692308,0 Z M112.384615,72 L39.6153846,72 L39.6153846,6 L112.384615,6 L112.384615,72 Z" id="Shape" fill-rule="nonzero"></path>
            <path d="M5.97470063,63.8783457 C4.60693483,62.7059412 2.3921902,62.7059412 1.02582435,63.8783457 C-0.340541486,65.0507502 -0.341941451,66.9491575 1.02582435,68.120362 L11.5255619,77.1203966 C12.2087448,77.7071989 13.1033224,78 13.9993,78 C14.8952776,78 15.7898553,77.7071989 16.4744381,77.1215966 L26.9741756,68.121562 C28.3419415,66.9491575 28.3419415,65.0507502 26.9741756,63.8795457 C25.6064098,62.7083412 23.3916652,62.7071412 22.0252994,63.8795457 L17.4992125,67.7579606 L17.4992125,10.2417394 L22.0238994,14.1201543 C22.7084823,14.7069566 23.6030599,14.9997577 24.4990375,14.9997577 C25.3950151,14.9997577 26.2895928,14.7069566 26.9741756,14.1213543 C28.3419415,12.9489498 28.3419415,11.0505425 26.9741756,9.879338 L16.4744381,0.879303382 C15.1066723,-0.293101127 12.8919277,-0.293101127 11.5255619,0.879303382 L1.02582435,9.879338 C-0.341941451,11.0517425 -0.341941451,12.9501498 1.02582435,14.1213543 C2.39359016,15.2925588 4.60833479,15.2937588 5.97470063,14.1213543 L10.4993875,10.2429394 L10.4993875,67.7591606 L5.97470063,63.8783457 Z" id="Path"></path>
            <path d="M108.10769,86.9159032 C106.815073,85.6946989 104.722014,85.6946989 103.430721,86.9159032 C102.139428,88.1371074 102.138105,90.1145332 103.430721,91.3344875 L107.706807,95.374336 L44.2931932,95.374336 L48.5692792,91.3344875 C49.8618955,90.1132833 49.8618955,88.1358574 48.5692792,86.9159032 C47.2766628,85.6959489 45.1836035,85.6946989 43.8923102,86.9159032 L33.9694622,96.2905516 C32.6768459,97.5117558 32.6768459,99.4891817 33.9694622,100.709136 L43.8923102,110.083784 C44.5392799,110.695011 45.3847065,111 46.2314562,111 C47.0782059,111 47.9236325,110.695011 48.5706022,110.085034 C49.8632185,108.86383 49.8632185,106.886404 48.5706022,105.66645 L44.2931932,101.625352 L107.706807,101.625352 L103.430721,105.6652 C102.138105,106.886404 102.138105,108.86383 103.430721,110.083784 C104.076367,110.695011 104.921794,111 105.768544,111 C106.615293,111 107.46072,110.695011 108.10769,110.085034 L118.030538,100.710386 C119.323154,99.4891817 119.323154,97.5117558 118.030538,96.2918016 L108.10769,86.9159032 Z" id="Path"></path>
        </g>
    </g>
</svg>