<?xml version="1.0" encoding="UTF-8"?>
<svg width="150px" height="150px" viewBox="0 0 150 150" version="1.1" xmlns="http://www.w3.org/2000/svg" xmlns:xlink="http://www.w3.org/1999/xlink">
    <!-- Generator: Sketch 52.2 (67145) - http://www.bohemiancoding.com/sketch -->
    <title>profile</title>
    <desc>Created with Sketch.</desc>
    <g id="profile" stroke="none" stroke-width="1" fill="none" fill-rule="evenodd">
        <rect fill="#D8D8D8" x="0" y="0" width="150" height="150"></rect>
        <g id="noun_User_33244" transform="translate(36.000000, 37.000000)" fill="#FFFFFF">
            <path d="M49.4593928,47.5365304 C49.4593928,47.5365304 49.0049351,43.6742839 49.4593928,41.629868 C54.9115975,36.8587061 55.4793477,31.4065014 55.13947,17.0930158 C54.8343525,4.26392018 45.4825662,0.962986804 39.2360262,0.962986804 C32.9894861,0.962986804 23.6376998,4.26392018 23.3325823,17.0930158 C22.9914172,31.4065014 23.5604549,36.8587061 29.0126596,41.629868 C29.4671173,43.6742839 29.0126596,47.5365304 29.0126596,47.5365304 C29.0126596,47.5365304 0.613560777,53.6697779 0.613560777,65.7122626 C0.613560777,70.9584808 0.613560777,73.2307692 0.613560777,74.1177985 L39.2360262,74.1177985 L77.8584916,74.1177985 C77.8584916,73.2307692 77.8584916,70.9584808 77.8584916,65.7122626 C77.8584916,53.6697779 49.4593928,47.5365304 49.4593928,47.5365304 Z" id="Path"></path>
        </g>
    </g>
</svg>