<?xml version="1.0" encoding="UTF-8"?>
<svg width="18px" height="17px" viewBox="0 0 18 17" version="1.1" xmlns="http://www.w3.org/2000/svg" xmlns:xlink="http://www.w3.org/1999/xlink">
    <!-- Generator: Sketch 52.2 (67145) - http://www.bohemiancoding.com/sketch -->
    <title>noun_sizes_844736</title>
    <desc>Created with Sketch.</desc>
    <g id="Page-1" stroke="none" stroke-width="1" fill="none" fill-rule="evenodd">
        <g id="Group-3" transform="translate(0.000000, -1.000000)" fill="#507BFC">
            <g id="noun_sizes_844736" transform="translate(0.000000, 1.000000)">
                <path d="M17.5,0 L5.5,0 C5.2238,0 5,0.206584615 5,0.461538462 L5,11.5384615 C5,11.7934154 5.2238,12 5.5,12 L17.5,12 C17.7762,12 18,11.7934154 18,11.5384615 L18,0.461538462 C18,0.206584615 17.7762,0 17.5,0 Z M17,11.0769231 L6,11.0769231 L6,0.923076923 L17,0.923076923 L17,11.0769231 Z" id="Shape" fill-rule="nonzero"></path>
                <path d="M0.853528662,9.8274378 C0.658133547,9.64706787 0.341741456,9.64706787 0.146546336,9.8274378 C-0.0486487838,10.0078077 -0.0488487788,10.2998704 0.146546336,10.4800557 L1.64650884,11.8646764 C1.7441064,11.9549537 1.8719032,12 1.9999,12 C2.1278968,12 2.25569361,11.9549537 2.35349116,11.864861 L3.85345366,10.4802403 C4.04884878,10.2998704 4.04884878,10.0078077 3.85345366,9.82762241 C3.65805855,9.64743711 3.34166646,9.64725249 3.14647134,9.82762241 L2.4998875,10.4243016 L2.4998875,1.57565221 L3.14627134,2.17233143 C3.2440689,2.2626087 3.3718657,2.30765503 3.4998625,2.30765503 C3.6278593,2.30765503 3.75565611,2.2626087 3.85345366,2.17251605 C4.04884878,1.99214612 4.04884878,1.70008346 3.85345366,1.51989815 L2.35349116,0.135277443 C2.15809605,-0.0450924811 1.84170396,-0.0450924811 1.64650884,0.135277443 L0.146546336,1.51989815 C-0.0488487788,1.70026808 -0.0488487788,1.99233074 0.146546336,2.17251605 C0.341941451,2.35270136 0.658333542,2.35288597 0.853528662,2.17251605 L1.4999125,1.57583683 L1.4999125,10.4244862 L0.853528662,9.8274378 Z" id="Path"></path>
                <path d="M16.353488,13.1465445 C16.1580925,12.9511518 15.8416998,12.9511518 15.6465043,13.1465445 C15.4513088,13.3419372 15.4511088,13.6583253 15.6465043,13.853518 L16.2928894,14.4998938 L6.70711061,14.4998938 L7.35349569,13.853518 C7.54889118,13.6581253 7.54889118,13.3417372 7.35349569,13.1465445 C7.1581002,12.9513518 6.8417075,12.9511518 6.646512,13.1465445 L5.14654662,14.6464883 C4.95115113,14.8418809 4.95115113,15.1582691 5.14654662,15.3534617 L6.646512,16.8534055 C6.74430975,16.9512018 6.8721068,17 7.00010384,17 C7.12810089,17 7.25589794,16.9512018 7.35369568,16.8536055 C7.54909117,16.6582128 7.54909117,16.3418247 7.35369568,16.146632 L6.70711061,15.5000562 L16.2928894,15.5000562 L15.6465043,16.146432 C15.4511088,16.3418247 15.4511088,16.6582128 15.6465043,16.8534055 C15.7441021,16.9512018 15.8718991,17 15.9998962,17 C16.1278932,17 16.2556903,16.9512018 16.353488,16.8536055 L17.8534534,15.3536617 C18.0488489,15.1582691 18.0488489,14.8418809 17.8534534,14.6466882 L16.353488,13.1465445 Z" id="Path"></path>
            </g>
        </g>
    </g>
</svg>