<?xml version="1.0" encoding="UTF-8"?>
<svg width="150px" height="150px" viewBox="0 0 150 150" version="1.1" xmlns="http://www.w3.org/2000/svg" xmlns:xlink="http://www.w3.org/1999/xlink">
    <!-- Generator: Sketch 52.2 (67145) - http://www.bohemiancoding.com/sketch -->
    <title>restaurant-white</title>
    <desc>Created with Sketch.</desc>
    <g id="restaurant-white" stroke="none" stroke-width="1" fill="none" fill-rule="evenodd">
        <g id="noun_Restaurant_1943006" transform="translate(25.000000, 25.000000)" fill="#FFFFFF" fill-rule="nonzero">
            <g id="Group">
                <path d="M10.0061609,28.334048 C12.6291385,28.334048 15.0990411,27.0990967 16.6728276,25.0007147 C18.2466141,27.0990967 20.7165167,28.334048 23.3394943,28.334048 C25.9624718,28.334048 28.4323744,27.0990967 30.0061609,25.0007147 C31.5799475,27.0990967 34.0498501,28.334048 36.6728276,28.334048 C39.2958051,28.334048 41.7657078,27.0990967 43.3394943,25.0007147 C44.9132808,27.0990967 47.3831834,28.334048 50.0061609,28.334048 C52.6291385,28.334048 55.0990411,27.0990967 56.6728276,25.0007147 C58.2466141,27.0990967 60.7165167,28.334048 63.3394943,28.334048 C65.9624718,28.334048 68.4323744,27.0990967 70.0061609,25.0007147 C71.5799475,27.0990967 74.0498501,28.334048 76.6728276,28.334048 C79.2958051,28.334048 81.7657078,27.0990967 83.3394943,25.0007147 C85.4916463,27.8702507 89.2385412,29.0406926 92.6413923,27.9064088 C96.0442435,26.7721251 98.3394943,23.5876348 98.3394943,20.0007147 L98.3394943,15.0007147 C98.3472916,14.9231323 98.3472916,14.8449637 98.3394943,14.7673814 C98.3477089,14.7121295 98.3477089,14.6559666 98.3394943,14.6007147 L95.0061609,1.26738136 C94.8181351,0.505409221 94.1239896,-0.0221413519 93.3394943,0.000714689416 L6.67282761,0.000714689416 C5.88833231,-0.0221413519 5.19418682,0.505409221 5.00616094,1.26738136 L1.67282761,14.6007147 C1.66461302,14.6559666 1.66461302,14.7121295 1.67282761,14.7673814 C1.66503029,14.8449637 1.66503029,14.9231323 1.67282761,15.0007147 L1.67282761,20.0007147 C1.67282761,24.6030876 5.40378803,28.334048 10.0061609,28.334048 Z M10.0061609,25.0007147 C7.24473719,25.0007147 5.00616094,22.7621384 5.00616094,20.0007147 L5.00616094,16.6673814 L15.0061609,16.6673814 L15.0061609,20.0007147 C15.0061609,22.7621384 12.7675847,25.0007147 10.0061609,25.0007147 Z M81.4561609,13.334048 L71.6728276,13.334048 L71.6728276,3.33404802 L80.2061609,3.33404802 L81.4561609,13.334048 Z M68.3394943,13.334048 L58.3394943,13.334048 L58.3394943,3.33404802 L68.3394943,3.33404802 L68.3394943,13.334048 Z M55.0061609,13.334048 L45.0061609,13.334048 L45.0061609,3.33404802 L55.0061609,3.33404802 L55.0061609,13.334048 Z M41.6728276,13.334048 L31.6728276,13.334048 L31.6728276,3.33404802 L41.6728276,3.33404802 L41.6728276,13.334048 Z M28.3394943,13.334048 L18.5561609,13.334048 L19.8061609,3.33404802 L28.3394943,3.33404802 L28.3394943,13.334048 Z M23.3394943,25.0007147 C20.5780705,25.0007147 18.3394943,22.7621384 18.3394943,20.0007147 L18.3394943,16.6673814 L28.3394943,16.6673814 L28.3394943,20.0007147 C28.3394943,22.7621384 26.100918,25.0007147 23.3394943,25.0007147 Z M36.6728276,25.0007147 C33.9114039,25.0007147 31.6728276,22.7621384 31.6728276,20.0007147 L31.6728276,16.6673814 L41.6728276,16.6673814 L41.6728276,20.0007147 C41.6728276,22.7621384 39.4342514,25.0007147 36.6728276,25.0007147 Z M50.0061609,25.0007147 C47.2447372,25.0007147 45.0061609,22.7621384 45.0061609,20.0007147 L45.0061609,16.6673814 L55.0061609,16.6673814 L55.0061609,20.0007147 C55.0061609,22.7621384 52.7675847,25.0007147 50.0061609,25.0007147 Z M63.3394943,25.0007147 C60.5780705,25.0007147 58.3394943,22.7621384 58.3394943,20.0007147 L58.3394943,16.6673814 L68.3394943,16.6673814 L68.3394943,20.0007147 C68.3394943,22.7621384 66.100918,25.0007147 63.3394943,25.0007147 Z M76.6728276,25.0007147 C73.9114039,25.0007147 71.6728276,22.7621384 71.6728276,20.0007147 L71.6728276,16.6673814 L81.6728276,16.6673814 L81.6728276,20.0007147 C81.6728276,22.7621384 79.4342514,25.0007147 76.6728276,25.0007147 Z M95.0061609,20.0007147 C95.0061609,22.7621384 92.7675847,25.0007147 90.0061609,25.0007147 C87.2447372,25.0007147 85.0061609,22.7621384 85.0061609,20.0007147 L85.0061609,16.6673814 L95.0061609,16.6673814 L95.0061609,20.0007147 Z M94.5394943,13.334048 L84.8061609,13.334048 L83.5561609,3.33404802 L92.0394943,3.33404802 L94.5394943,13.334048 Z M7.97282761,3.33404802 L16.4561609,3.33404802 L15.2061609,13.334048 L5.47282761,13.334048 L7.97282761,3.33404802 Z" id="Shape"></path>
                <path d="M89.3833333,85.0002962 C91.811467,84.8715644 93.7949582,83.0146791 94.0833333,80.6002962 L96.6333333,58.9336295 C96.8050654,57.5128723 96.3597765,56.0866283 95.4101937,55.0159577 C94.4606109,53.9452872 93.097765,53.3328289 91.6666667,53.3336295 C89.16799,53.3066288 87.0330148,55.1284744 86.6666667,57.6002962 L83.9833333,75.0002962 L68.75,75.0002962 C65.9885763,75.0002963 63.7500002,77.2388725 63.7500002,80.0002962 C63.7500002,82.7617199 65.9885763,85.0002961 68.75,85.0002962 L69.7666667,85.0002962 L65.8833333,96.6669629 L55,96.6669629 L55,70.0002962 L73.3333333,70.0002962 C74.2538079,70.0002962 75,69.2541041 75,68.3336295 L75,61.6669629 C75,60.7464883 74.2538079,60.0002962 73.3333333,60.0002962 L26.6666667,60.0002962 C25.7461921,60.0002962 25,60.7464883 25,61.6669629 L25,68.3336295 C25,69.2541041 25.7461921,70.0002962 26.6666667,70.0002962 L45,70.0002962 L45,96.6669629 L34.1166667,96.6669629 L30.2333333,85.0002962 L31.25,85.0002962 C34.0114237,85.0002961 36.2499998,82.7617199 36.2499998,80.0002962 C36.2499998,77.2388725 34.0114237,75.0002963 31.25,75.0002962 L16.0166667,75.0002962 L13.3333333,57.6002962 C12.9669852,55.1284744 10.83201,53.3066288 8.33333333,53.3336295 C6.89315028,53.3226286 5.5181675,53.9331811 4.56054178,55.008914 C3.60291607,56.0846469 3.15566356,57.521072 3.33333333,58.9502962 L5.88333333,80.6169629 C6.18145669,83.0366523 8.18124246,84.8885666 10.6166667,85.0002962 L6.66666667,96.6669629 L0,96.6669629 L0,100.000296 L100,100.000296 L100,96.6669629 L93.3333333,96.6669629 L89.3833333,85.0002962 Z M67.0833333,80.0002962 C67.0833333,79.0798216 67.8295254,78.3336295 68.75,78.3336295 L85.4166667,78.3336295 C86.247739,78.3430248 86.9587176,77.738693 87.0833333,76.9169629 L90,58.1002962 C90.1170826,57.2719358 90.8301133,56.6587294 91.6666667,56.6669629 C92.151187,56.6627468 92.6135562,56.8695962 92.9333333,57.2336295 C93.2607636,57.5956186 93.4130539,58.0829475 93.35,58.5669629 L90.8166667,80.2336295 C90.714961,81.075238 89.9977095,81.7064193 89.15,81.7002962 L68.75,81.7002962 C68.3021361,81.7003858 67.873082,81.5202227 67.5595452,81.2004153 C67.2460085,80.8806078 67.074376,80.4480706 67.0833333,80.0002962 Z M73.3333333,85.0002962 L85.9333333,85.0002962 L89.8166667,96.6669629 L69.4,96.6669629 L73.3333333,85.0002962 Z M28.3333333,63.3336295 L71.6666667,63.3336295 L71.6666667,66.6669629 L28.3333333,66.6669629 L28.3333333,63.3336295 Z M9.21666667,80.2002962 L6.66666667,58.5669629 C6.60361278,58.0829475 6.75590305,57.5956186 7.08333333,57.2336295 C7.39928307,56.8739891 7.85462141,56.6675691 8.33333333,56.6669629 C9.16988671,56.6587294 9.88291737,57.2719358 10,58.1002962 L12.9333333,76.9169629 C13.057949,77.738693 13.7689277,78.3430248 14.6,78.3336295 L31.2666667,78.3336295 C32.1871412,78.3336295 32.9333333,79.0798216 32.9333333,80.0002962 C32.9333333,80.9207708 32.1871412,81.6669629 31.2666667,81.6669629 L10.8833333,81.6669629 C10.0356239,81.673086 9.31837234,81.0419046 9.21666667,80.2002962 Z M14.1166667,85.0002962 L26.6666667,85.0002962 L30.55,96.6669629 L10.2333333,96.6669629 L14.1166667,85.0002962 Z M48.3333333,96.6669629 L48.3333333,70.0002962 L51.6666667,70.0002962 L51.6666667,96.6669629 L48.3333333,96.6669629 Z" id="Shape"></path>
            </g>
        </g>
    </g>
</svg>