<?xml version="1.0" encoding="UTF-8"?>
<svg width="150px" height="150px" viewBox="0 0 150 150" version="1.1" xmlns="http://www.w3.org/2000/svg" xmlns:xlink="http://www.w3.org/1999/xlink">
    <!-- Generator: Sketch 52.2 (67145) - http://www.bohemiancoding.com/sketch -->
    <title>retail-selected</title>
    <desc>Created with Sketch.</desc>
    <g id="retail-selected" stroke="none" stroke-width="1" fill="none" fill-rule="evenodd">
        <g id="noun_Retail_1797474" transform="translate(25.000000, 25.000000)" fill="#FFFFFF" fill-rule="nonzero">
            <path d="M61.6668701,36.3238525 L71.0418701,36.3238525 C71.7321778,36.3238525 72.2918701,35.7641601 72.2918701,35.0738525 L72.2918701,24.1967772 C72.2918701,20.9228515 69.6282959,18.2592773 66.3543701,18.2592773 C63.0804444,18.2592773 60.4168701,20.9228515 60.4168701,24.1967772 L60.4168701,35.0738525 C60.4168701,35.7641601 60.9765625,36.3238525 61.6668701,36.3238525 Z M62.9168701,24.1967774 C62.9168701,22.3016358 64.4586181,20.7592774 66.3543701,20.7592774 C68.2501221,20.7592774 69.7918701,22.3016358 69.7918701,24.1967774 L69.7918701,33.8238526 L62.9168701,33.8238526 L62.9168701,24.1967774 Z" id="Shape"></path>
            <path d="M45.3125,36.3238525 L54.6875,36.3238525 C55.3778076,36.3238525 55.9375,35.7641601 55.9375,35.0738525 L55.9375,24.1967772 C55.9375,20.9228515 53.2739258,18.2592773 50,18.2592773 C46.7260742,18.2592773 44.0625,20.9228515 44.0625,24.1967772 L44.0625,35.0738525 C44.0625,35.7641601 44.6221924,36.3238525 45.3125,36.3238525 Z M46.5625,24.1967774 C46.5625,22.3016358 48.104248,20.7592774 50,20.7592774 C51.895752,20.7592774 53.4375,22.3016358 53.4375,24.1967774 L53.4375,33.8238526 L46.5625,33.8238526 L46.5625,24.1967774 Z" id="Shape"></path>
            <path d="M28.9581299,36.3238525 L38.3331299,36.3238525 C39.0234375,36.3238525 39.5831299,35.7641601 39.5831299,35.0738525 L39.5831299,24.1967772 C39.5831299,20.9228515 36.9195556,18.2592773 33.6456299,18.2592773 C30.3717041,18.2592773 27.7081299,20.9228515 27.7081299,24.1967772 L27.7081299,35.0738525 C27.7081299,35.7641601 28.2678223,36.3238525 28.9581299,36.3238525 Z M30.2081299,24.1967774 C30.2081299,22.3016358 31.7498779,20.7592774 33.6456299,20.7592774 C35.5413819,20.7592774 37.0831299,22.3016358 37.0831299,24.1967774 L37.0831299,33.8238526 L30.2081299,33.8238526 L30.2081299,24.1967774 Z" id="Shape"></path>
            <path d="M100,60.9375 C100,54.208374 94.5257569,48.7341309 87.7966309,48.7341309 C85.7644654,48.7341309 83.8507844,49.2403413 82.1636962,50.1226806 L82.1636962,9.58312987 L83.3331299,9.58312987 C84.0234375,9.58312987 84.5831299,9.0234375 84.5831299,8.33312987 L84.5831299,1.25 C84.5831299,0.559692375 84.0234375,0 83.3331299,0 L16.6668701,0 C15.9765625,0 15.4168701,0.559692375 15.4168701,1.25 L15.4168701,8.33312988 C15.4168701,9.0234375 15.9765625,9.58312988 16.6668701,9.58312988 L17.8363037,9.58312988 L17.8363037,50.1226806 C16.1492157,49.2403411 14.2355347,48.7341309 12.2033691,48.7341309 C5.47424313,48.7341309 0,54.208374 0,60.9375 C0,67.2446441 4.80934137,72.4492645 10.9533691,73.0771637 L10.9533691,97.5 L1.25,97.5 C0.559692375,97.5 0,98.0596924 0,98.75 C0,99.4403076 0.559692375,100 1.25,100 L98.75,100 C99.4403076,100 100,99.4403076 100,98.75 C100,98.0596924 99.4403076,97.5 98.75,97.5 L89.0466309,97.5 L89.0466309,73.0771637 C95.1906586,72.4492645 100,67.2446441 100,60.9375 Z M97.5,60.9375 C97.5,66.2878417 93.1469726,70.6408691 87.7966309,70.6408691 C82.4462891,70.6408691 78.0932618,66.2878417 78.0932618,60.9375 C78.0932618,55.5871583 82.4462891,51.2341309 87.7966309,51.2341309 C93.1469726,51.2341309 97.5,55.5871583 97.5,60.9375 Z M20.3363037,82.5 L39.9481201,82.5 L39.9481201,97.5 L20.3363037,97.5 L20.3363037,82.5 Z M57.5518799,97.5 L42.4481201,97.5 L42.4481201,73.4893799 C42.4481201,69.3255615 45.8355713,65.9375 50,65.9375 C54.1644288,65.9375 57.5518799,69.3255615 57.5518799,73.4893799 L57.5518799,97.5 Z M60.0518799,82.5 L79.6636963,82.5 L79.6636963,97.5 L60.0518799,97.5 L60.0518799,82.5 Z M79.6636964,80 L60.0518799,80 L60.0518799,73.4893799 C60.0518799,67.9467774 55.5426025,63.4375 50,63.4375 C44.4573975,63.4375 39.9481201,67.9467774 39.9481201,73.4893799 L39.9481201,80 L20.3363037,80 L20.3363037,70.0100708 C22.8278351,67.7742004 24.4067384,64.5407868 24.4067384,60.9375 C24.4067384,60.8149719 24.3919374,60.696106 24.3883515,60.5744171 C25.8164216,60.3475953 27.055359,59.5886994 27.918625,58.503952 C28.9574434,59.809494 30.5403139,60.6640625 32.3345949,60.6640625 C34.1289521,60.6640625 35.7120515,59.8094178 36.7510987,58.5037995 C37.790146,59.8094178 39.3732454,60.6640625 41.1676026,60.6640625 C42.9618836,60.6640625 44.5447541,59.809494 45.5835725,58.503952 C46.6225434,59.809494 48.205719,60.6640625 50,60.6640625 C51.794281,60.6640625 53.3774566,59.809494 54.4164276,58.503952 C55.455246,59.809494 57.0381165,60.6640625 58.8323975,60.6640625 C60.6267548,60.6640625 62.2098541,59.8094178 63.2489014,58.5037995 C64.2879486,59.8094178 65.871048,60.6640625 67.6654053,60.6640625 C69.4596863,60.6640625 71.0425568,59.809494 72.0813751,58.503952 C72.9446411,59.5886994 74.1835785,60.3475953 75.6116486,60.5744171 C75.6080628,60.696106 75.5932618,60.8149719 75.5932618,60.9375 C75.5932618,64.5407868 77.172165,67.7742005 79.6636964,70.0100708 L79.6636964,80 Z M35.5010986,47.5 L35.5010986,54.9975586 C35.5010986,56.7437745 34.0808105,58.1640625 32.3345947,58.1640625 C30.5889892,58.1640625 29.1687012,56.7437744 29.1687012,54.9975586 L29.1687012,47.5 L35.5010986,47.5 Z M70.8312989,54.9975586 C70.8312989,56.7437745 69.4110108,58.1640625 67.6654054,58.1640625 C65.9191895,58.1640625 64.4989015,56.7437744 64.4989015,54.9975586 L64.4989015,47.5 L70.831299,47.5 L70.831299,54.9975586 L70.8312989,54.9975586 Z M61.9989014,54.9975586 C61.9989014,56.7437745 60.5786133,58.1640625 58.8323975,58.1640625 C57.086792,58.1640625 55.666504,56.7437744 55.666504,54.9975586 L55.666504,47.5 L61.9989015,47.5 L61.9989015,54.9975586 L61.9989014,54.9975586 Z M53.1665039,54.9975586 C53.1665039,56.7437745 51.7462157,58.1640625 50,58.1640625 C48.2537843,58.1640625 46.8334961,56.7437744 46.8334961,54.9975586 L46.8334961,47.5 L53.1665039,47.5 L53.1665039,54.9975586 Z M44.3334961,54.9975586 C44.3334961,56.7437745 42.913208,58.1640625 41.1676026,58.1640625 C39.4213867,58.1640625 38.0010987,56.7437744 38.0010987,54.9975586 L38.0010987,47.5 L44.3334962,47.5 L44.3334962,54.9975586 L44.3334961,54.9975586 Z M75.9379577,58.1074524 C74.4589234,57.841568 73.3312989,56.5520477 73.3312989,54.9975586 L73.3312989,47.5 L79.6636964,47.5 L79.6636964,51.8649292 C77.846756,53.4954071 76.5232086,55.6565094 75.9379577,58.1074524 Z M17.9168701,2.5 L82.0831299,2.5 L82.0831299,7.08312988 L17.9168701,7.08312988 L17.9168701,2.5 Z M79.6636963,9.58312987 L79.6636963,45 L20.3363037,45 L20.3363037,9.58312987 L79.6636963,9.58312987 Z M20.3363037,47.5 L26.6687012,47.5 L26.6687012,54.9975586 C26.6687012,56.5520477 25.5410767,57.841568 24.0620424,58.1074524 C23.4767915,55.6565094 22.1532441,53.4954071 20.3363039,51.8649291 L20.3363037,47.5 Z M2.5,60.9375 C2.5,55.5871583 6.85302738,51.2341309 12.2033691,51.2341309 C17.5537109,51.2341309 21.9067383,55.5871583 21.9067383,60.9375 C21.9067383,66.2878417 17.5537109,70.6408691 12.2033691,70.6408691 C6.85302737,70.6408691 2.5,66.2878417 2.5,60.9375 Z M13.4533691,73.0771638 C15.0218964,72.9168701 16.4995575,72.4514771 17.8363037,71.7523194 L17.8363037,97.5 L13.4533691,97.5 L13.4533691,73.0771638 Z M82.1636962,97.5 L82.1636962,71.7523194 C83.5004425,72.4514771 84.9781036,72.9168701 86.5466309,73.0771638 L86.5466309,97.5 L82.1636962,97.5 Z" id="Shape"></path>
        </g>
    </g>
</svg>