<?xml version="1.0" encoding="UTF-8"?>
<svg width="150px" height="150px" viewBox="0 0 150 150" version="1.1" xmlns="http://www.w3.org/2000/svg" xmlns:xlink="http://www.w3.org/1999/xlink">
    <!-- Generator: Sketch 52.2 (67145) - http://www.bohemiancoding.com/sketch -->
    <title>send</title>
    <desc>Created with Sketch.</desc>
    <g id="send" stroke="none" stroke-width="1" fill="none" fill-rule="evenodd">
        <g id="noun_send_984575" transform="translate(44.000000, 41.000000)" fill="#007AFF">
            <path d="M37.3086963,36.2574014 L7.91459376,39.029841 L0.178119958,63.1380112 C-0.283698304,64.563281 0.170413836,66.1196227 1.33265899,67.0948692 C2.49490415,68.0701157 4.14167915,68.2766402 5.51943545,67.6199392 L69.9413227,37.2217282 C71.2009375,36.6229591 72,35.3767192 72,34.0109583 C72,32.6451974 71.2009375,31.3989574 69.9413227,30.8001883 L5.56441495,0.380060792 C4.18665865,-0.276640241 2.53988365,-0.0701156835 1.37763849,0.905130796 C0.215393335,1.88037728 -0.238718805,3.43671899 0.223099457,4.8619888 L7.95957326,28.970159 L37.2974514,31.7425986 C38.482718,31.8568259 39.3859267,32.8283514 39.3859267,33.9890417 C39.3859267,35.1497321 38.482718,36.1212575 37.2974514,36.2354849 L37.3086963,36.2574014 Z" id="Path"></path>
        </g>
    </g>
</svg>