<?xml version="1.0" encoding="UTF-8"?>
<svg width="150px" height="150px" viewBox="0 0 150 150" version="1.1" xmlns="http://www.w3.org/2000/svg" xmlns:xlink="http://www.w3.org/1999/xlink">
    <!-- Generator: Sketch 52.2 (67145) - http://www.bohemiancoding.com/sketch -->
    <title>counter</title>
    <desc>Created with Sketch.</desc>
    <defs>
        <circle id="path-1" cx="75" cy="75" r="74"></circle>
        <filter x="-4.7%" y="-3.4%" width="109.5%" height="109.5%" filterUnits="objectBoundingBox" id="filter-2">
            <feOffset dx="0" dy="2" in="SourceAlpha" result="shadowOffsetOuter1"></feOffset>
            <feGaussianBlur stdDeviation="2" in="shadowOffsetOuter1" result="shadowBlurOuter1"></feGaussianBlur>
            <feColorMatrix values="0 0 0 0 0.737457483   0 0 0 0 0.737457483   0 0 0 0 0.737457483  0 0 0 0.5 0" type="matrix" in="shadowBlurOuter1"></feColorMatrix>
        </filter>
    </defs>
    <g id="counter" stroke="none" stroke-width="1" fill="none" fill-rule="evenodd">
        <g id="Oval">
            <use fill="black" fill-opacity="1" filter="url(#filter-2)" xlink:href="#path-1"></use>
            <use fill="#ECF0F1" fill-rule="evenodd" xlink:href="#path-1"></use>
        </g>
        <g id="noun_reception_1146662" transform="translate(40.000000, 45.000000)" fill="#000000" fill-rule="nonzero">
            <g id="Group">
                <path d="M20.3076923,16.1538462 C24.6153846,16.1538462 28.0769231,12.6923077 28.0769231,8.38461538 C28.0769231,4.07692308 24.6153846,0.615384615 20.3076923,0.615384615 C16,0.615384615 12.5384615,4.07692308 12.5384615,8.38461538 C12.5384615,12.6923077 16,16.1538462 20.3076923,16.1538462 Z M20.3076923,2.07692308 C23.7692308,2.07692308 26.5384615,4.84615385 26.5384615,8.30769231 C26.5384615,11.7692308 23.6923077,14.6153846 20.3076923,14.6153846 C16.9230769,14.6153846 14.0769231,11.8461538 14.0769231,8.38461538 C14.0769231,4.92307692 16.8461538,2.07692308 20.3076923,2.07692308 Z" id="Shape"></path>
                <path d="M67.9230769,26.6153846 L63,26.6153846 L63,18 C63,17.5384615 62.6923077,17.2307692 62.2307692,17.2307692 L58.2307692,17.2307692 L58.2307692,8.46153846 C58.2307692,8 57.9230769,7.69230769 57.4615385,7.69230769 L39.3846154,7.69230769 C38.9230769,7.69230769 38.6153846,8 38.6153846,8.46153846 L38.6153846,18.0769231 C38.6153846,18.5384615 38.9230769,18.8461538 39.3846154,18.8461538 L43.3846154,18.8461538 L43.3846154,26.6923077 L33.1538462,26.6923077 C32.6153846,21 27.8461538,16.5384615 22.0769231,16.5384615 L18.5384615,16.5384615 C12.7692308,16.5384615 7.92307692,21 7.46153846,26.6923077 L1.30769231,26.6923077 C0.846153846,26.6923077 0.538461538,27 0.538461538,27.4615385 L0.538461538,35.6153846 C0.538461538,36.0769231 0.846153846,36.3846154 1.30769231,36.3846154 L4.38461538,36.3846154 L4.38461538,58.6923077 C4.38461538,59.1538462 4.69230769,59.4615385 5.15384615,59.4615385 L64.1538462,59.4615385 C64.6153846,59.4615385 64.9230769,59.1538462 64.9230769,58.6923077 L64.9230769,36.3846154 L68,36.3846154 C68.4615385,36.3846154 68.7692308,36.0769231 68.7692308,35.6153846 L68.7692308,27.3846154 C68.6923077,27 68.3846154,26.6153846 67.9230769,26.6153846 Z M40.1538462,9.23076923 L56.6923077,9.23076923 L56.6923077,17.3076923 L40.1538462,17.3076923 L40.1538462,9.23076923 Z M44.9230769,18.7692308 L61.4615385,18.7692308 L61.4615385,26.6153846 L44.9230769,26.6153846 L44.9230769,18.7692308 Z M18.5384615,18 L22.0769231,18 C27,18 31.1538462,21.7692308 31.6153846,26.6153846 L8.92307692,26.6153846 C9.46153846,21.8461538 13.5384615,18 18.5384615,18 Z M63.3076923,57.9230769 L5.92307692,57.9230769 L5.92307692,36.3846154 L63.3846154,36.3846154 L63.3846154,57.9230769 L63.3076923,57.9230769 Z M67.1538462,34.8461538 L2.07692308,34.8461538 L2.07692308,28.2307692 L67.2307692,28.2307692 L67.2307692,34.8461538 L67.1538462,34.8461538 Z" id="Shape"></path>
            </g>
        </g>
    </g>
</svg>