<?xml version="1.0" encoding="UTF-8"?>
<svg width="150px" height="150px" viewBox="0 0 150 150" version="1.1" xmlns="http://www.w3.org/2000/svg" xmlns:xlink="http://www.w3.org/1999/xlink">
    <!-- Generator: Sketch 52.2 (67145) - http://www.bohemiancoding.com/sketch -->
    <title>heater</title>
    <desc>Created with Sketch.</desc>
    <defs>
        <circle id="path-1" cx="75" cy="75" r="74"></circle>
        <filter x="-4.7%" y="-3.4%" width="109.5%" height="109.5%" filterUnits="objectBoundingBox" id="filter-2">
            <feOffset dx="0" dy="2" in="SourceAlpha" result="shadowOffsetOuter1"></feOffset>
            <feGaussianBlur stdDeviation="2" in="shadowOffsetOuter1" result="shadowBlurOuter1"></feGaussianBlur>
            <feColorMatrix values="0 0 0 0 0.737457483   0 0 0 0 0.737457483   0 0 0 0 0.737457483  0 0 0 0.5 0" type="matrix" in="shadowBlurOuter1"></feColorMatrix>
        </filter>
    </defs>
    <g id="heater" stroke="none" stroke-width="1" fill="none" fill-rule="evenodd">
        <g id="Oval">
            <use fill="black" fill-opacity="1" filter="url(#filter-2)" xlink:href="#path-1"></use>
            <use fill="#ECF0F1" fill-rule="evenodd" xlink:href="#path-1"></use>
        </g>
        <g id="noun_heater_1860138" transform="translate(45.000000, 45.000000)" fill="#000000">
            <path d="M0,55.3085214 C0,57.895327 2.10431133,60 4.69111689,60 C7.27792244,60 9.38295719,57.895327 9.38295719,55.3085214 C9.38295719,53.7653266 8.63050674,52.3980487 7.47680667,51.542607 L10.9004268,51.542607 C11.3881655,53.4215404 13.093533,54.8148148 15.1229745,54.8148148 C16.6322157,54.8148148 17.9645453,54.0450484 18.7492766,52.8778302 C19.5340079,54.0450484 20.8663376,54.8148148 22.3755787,54.8148148 C23.8848198,54.8148148 25.2171495,54.0450484 26.0018807,52.8778302 C26.7866121,54.0450484 28.1189417,54.8148148 29.6281829,54.8148148 C31.1374241,54.8148148 32.4697537,54.0450484 33.254485,52.8778302 C34.0392162,54.0450484 35.3715459,54.8148148 36.880787,54.8148148 C38.4210883,54.8148148 39.7746673,54.0112757 40.5523004,52.8034578 C41.3299335,54.0112757 42.6835124,54.8148148 44.2238136,54.8148148 C46.253436,54.8148148 47.9588035,53.4213596 48.4464518,51.5422453 L51.7829499,51.5422453 C50.6289786,52.3976418 49.8763021,53.7651005 49.8763021,55.3085214 C49.8763021,57.895327 51.9813368,60 54.5681424,60 C57.1549479,60 59.2592593,57.895327 59.2592593,55.3085214 C59.2592593,53.7651005 58.5067636,52.3976418 57.3530635,51.5422453 L58.5185185,51.5422453 C58.9279514,51.5422453 59.2592593,51.2105758 59.2592593,50.8015046 L59.2592593,20.7407407 C59.2592593,20.3316696 58.9279514,20 58.5185185,20 L48.5349754,20 C48.2137948,17.9064037 46.4058883,16.2962963 44.2238136,16.2962963 C42.6835124,16.2962963 41.3299334,17.0998354 40.5523003,18.3076533 C39.7746673,17.0998354 38.4210883,16.2962963 36.880787,16.2962963 C35.3715459,16.2962963 34.0392162,17.0660627 33.254485,18.2332809 C32.4697537,17.0660627 31.1374241,16.2962963 29.6281829,16.2962963 C28.1189417,16.2962963 26.7866121,17.0660627 26.0018808,18.2332809 C25.2171496,17.0660627 23.8848199,16.2962963 22.3755787,16.2962963 C20.8663375,16.2962963 19.5340079,17.0660627 18.7492766,18.2332809 C17.9645453,17.0660627 16.6322157,16.2962963 15.1229745,16.2962963 C12.9408999,16.2962963 11.1330385,17.9064037 10.8118127,20 L0.740740741,20 C0.331307852,20 0,20.3316696 0,20.7407407 L0,50.8018663 C0,51.2109375 0.331307852,51.542607 0.740740741,51.542607 L1.90569844,51.542607 C0.75222437,52.3980487 0,53.7653266 0,55.3085214 Z M54.5681424,58.5185185 C52.7980324,58.5185185 51.3577836,57.0786313 51.3577836,55.3085214 C51.3577836,53.5387731 52.7980324,52.098886 54.5681424,52.098886 C56.3382524,52.098886 57.7777778,53.5387732 57.7777778,55.3085214 C57.7777778,57.0786313 56.3382523,58.5185185 54.5681424,58.5185185 Z M57.7777778,50.0607639 L48.5908564,50.0607639 L48.5908564,21.4814815 L57.7777778,21.4814815 L57.7777778,50.0607639 Z M41.3382523,20.6633391 C41.3382523,19.0722656 42.6323784,17.7777778 44.2238136,17.7777778 C45.8152488,17.7777778 47.109375,19.0722656 47.109375,20.6633391 L47.109375,50.447772 C47.109375,52.0388455 45.8152488,53.3333333 44.2238136,53.3333333 C42.6323784,53.3333333 41.3382523,52.0388455 41.3382523,50.447772 L41.3382523,20.6633391 Z M36.880787,17.7777778 C38.4722222,17.7777778 39.7663484,19.0722656 39.7663484,20.6633391 L39.7663484,50.447772 C39.7663484,52.0388455 38.4722222,53.3333333 36.880787,53.3333333 C35.2893519,53.3333333 33.9952257,52.0388455 33.9952257,50.447772 L33.9952257,20.6633391 C33.9952257,19.0722656 35.2893519,17.7777778 36.880787,17.7777778 Z M29.6281829,17.7777778 C31.2196181,17.7777778 32.5137442,19.0722656 32.5137442,20.6633391 L32.5137442,50.447772 C32.5137442,52.0388455 31.2196181,53.3333333 29.6281829,53.3333333 C28.0367477,53.3333333 26.7426216,52.0388455 26.7426216,50.447772 L26.7426216,20.6633391 C26.7426216,19.0722656 28.0367477,17.7777778 29.6281829,17.7777778 Z M22.3755787,17.7777778 C23.9670139,17.7777778 25.26114,19.0722656 25.26114,20.6633391 L25.26114,50.447772 C25.2611401,52.0388455 23.9670139,53.3333333 22.3755787,53.3333333 C20.7841434,53.3333333 19.4900173,52.0388455 19.4900173,50.447772 L19.4900173,20.6633391 C19.4900173,19.0722656 20.7841436,17.7777778 22.3755787,17.7777778 Z M12.2374132,20.6633391 C12.2374132,19.0722656 13.5315393,17.7777778 15.1229745,17.7777778 C16.7144097,17.7777778 18.0085359,19.0722656 18.0085359,20.6633391 L18.0085359,50.447772 C18.0085359,52.0388455 16.7144097,53.3333333 15.1229745,53.3333333 C13.5315393,53.3333333 12.2374132,52.0388455 12.2374132,50.447772 L12.2374132,20.6633391 Z M1.48148148,21.4814815 L10.7559317,21.4814815 L10.7559317,50.0611256 L1.48148148,50.0611256 L1.48148148,21.4814815 Z M4.69111689,52.098886 C6.46122681,52.098886 7.9014757,53.5387732 7.9014757,55.3085214 C7.9014757,57.0786313 6.46122681,58.5185185 4.69111689,58.5185185 C2.92100696,58.5185185 1.48148148,57.0786313 1.48148148,55.3085214 C1.48148148,53.5387732 2.92100696,52.098886 4.69111689,52.098886 Z" id="Shape" fill-rule="nonzero"></path>
            <path d="M21.3158276,1.44531252 C21.3158276,1.03624133 20.9845197,0.704571778 20.5750868,0.704571778 C20.1656539,0.704571778 19.8343461,1.03624133 19.8343461,1.44531252 C19.8343461,2.00629341 19.6129919,2.25730615 19.2787905,2.63708044 C18.8881655,3.08051215 18.3528646,3.68778933 18.3528646,4.80794274 C18.3528646,5.92881948 18.8874421,6.53645837 19.2780671,6.97989007 C19.6129919,7.36038778 19.8343461,7.61140052 19.8343461,8.17310474 C19.8343461,8.73480896 19.6129919,8.98582178 19.2780671,9.36631941 C18.8874421,9.80975111 18.3528646,10.4170283 18.3528646,11.537905 C18.3528646,11.9469762 18.6841724,12.2786458 19.0936053,12.2786458 C19.5030382,12.2786458 19.8343461,11.9469762 19.8343461,11.537905 C19.8343461,10.9765624 20.0557002,10.7255497 20.3899016,10.3454137 C20.7805267,9.9016203 21.3158276,9.29398141 21.3158276,8.17310467 C21.3158276,7.05222793 20.78125,6.44458904 20.390625,6.00115733 C20.0557003,5.62065963 19.8343461,5.36964689 19.8343461,4.80794267 C19.8343461,4.24732348 20.0557002,3.99631074 20.3899016,3.61653644 C20.7805266,3.17310474 21.3158276,2.56582756 21.3158276,1.44531252 Z" id="Path"></path>
            <path d="M29.8343461,1.44531252 C29.8343461,1.03624133 29.5030382,0.704571778 29.0936053,0.704571778 C28.6841724,0.704571778 28.3528646,1.03624133 28.3528646,1.44531252 C28.3528646,2.00629341 28.1315104,2.25730615 27.797309,2.63708044 C27.406684,3.08051215 26.8713831,3.68778933 26.8713831,4.80794274 C26.8713831,5.92881948 27.4059607,6.53645837 27.7965856,6.97989007 C28.1315104,7.36038778 28.3528646,7.61140052 28.3528646,8.17310474 C28.3528646,8.73480896 28.1315104,8.98582178 27.7965856,9.36631941 C27.4059606,9.80975111 26.8713831,10.4170283 26.8713831,11.537905 C26.8713831,11.9469762 27.202691,12.2786458 27.6121239,12.2786458 C28.0215567,12.2786458 28.3528646,11.9469762 28.3528646,11.537905 C28.3528646,10.9765624 28.5742187,10.7255497 28.9084201,10.3454137 C29.2990452,9.9016203 29.8343461,9.29398141 29.8343461,8.17310467 C29.8343461,7.05222793 29.2997685,6.44458904 28.9091436,6.00115733 C28.5742188,5.62065963 28.3528646,5.36964689 28.3528646,4.80794267 C28.3528646,4.24732348 28.5742187,3.99631074 28.9084201,3.61653644 C29.2990451,3.17310474 29.8343461,2.56582756 29.8343461,1.44531252 Z" id="Path"></path>
            <path d="M38.3528646,1.44531252 C38.3528646,1.03624133 38.0215567,0.704571778 37.6121239,0.704571778 C37.202691,0.704571778 36.8713831,1.03624133 36.8713831,1.44531252 C36.8713831,2.00629341 36.650029,2.25730615 36.3158276,2.63708044 C35.9252025,3.08051215 35.3899016,3.68778933 35.3899016,4.80794274 C35.3899016,5.92881948 35.9244792,6.53645837 36.3151041,6.97989007 C36.6500289,7.36038778 36.8713831,7.61140052 36.8713831,8.17310474 C36.8713831,8.73480896 36.650029,8.98582178 36.3151041,9.36631941 C35.9244791,9.80975111 35.3899016,10.4170283 35.3899016,11.537905 C35.3899016,11.9469762 35.7212095,12.2786458 36.1306424,12.2786458 C36.5400753,12.2786458 36.8713831,11.9469762 36.8713831,11.537905 C36.8713831,10.9765624 37.0927373,10.7255497 37.4269387,10.3454137 C37.8175637,9.9016203 38.3528646,9.29398141 38.3528646,8.17310467 C38.3528646,7.05222793 37.818287,6.44458904 37.4276621,6.00115733 C37.0927373,5.62065963 36.8713831,5.36964689 36.8713831,4.80794267 C36.8713831,4.24732348 37.0927373,3.99631074 37.4269387,3.61653644 C37.8175636,3.17310474 38.3528646,2.56582756 38.3528646,1.44531252 Z" id="Path"></path>
        </g>
    </g>
</svg>