<?xml version="1.0" encoding="UTF-8"?>
<svg width="150px" height="150px" viewBox="0 0 150 150" version="1.1" xmlns="http://www.w3.org/2000/svg" xmlns:xlink="http://www.w3.org/1999/xlink">
    <!-- Generator: Sketch 52.2 (67145) - http://www.bohemiancoding.com/sketch -->
    <title>light</title>
    <desc>Created with Sketch.</desc>
    <defs>
        <circle id="path-1" cx="75" cy="75" r="74"></circle>
        <filter x="-4.7%" y="-3.4%" width="109.5%" height="109.5%" filterUnits="objectBoundingBox" id="filter-2">
            <feOffset dx="0" dy="2" in="SourceAlpha" result="shadowOffsetOuter1"></feOffset>
            <feGaussianBlur stdDeviation="2" in="shadowOffsetOuter1" result="shadowBlurOuter1"></feGaussianBlur>
            <feColorMatrix values="0 0 0 0 0.737457483   0 0 0 0 0.737457483   0 0 0 0 0.737457483  0 0 0 0.5 0" type="matrix" in="shadowBlurOuter1"></feColorMatrix>
        </filter>
    </defs>
    <g id="light" stroke="none" stroke-width="1" fill="none" fill-rule="evenodd">
        <g id="Oval">
            <use fill="black" fill-opacity="1" filter="url(#filter-2)" xlink:href="#path-1"></use>
            <use fill="#ECF0F1" fill-rule="evenodd" xlink:href="#path-1"></use>
        </g>
        <g id="noun_Light_1467937" transform="translate(50.000000, 35.000000)" fill="#000000">
            <path d="M50.1691186,50.4366449 C50.1960614,49.9541591 50.212766,49.4684059 50.212766,48.9793854 C50.212766,35.3635933 39.5434153,24.2214938 26.2099603,23.6352681 L26.2099603,1.11527186 C26.2099603,0.498822736 25.7158292,0 25.106383,0 C24.4969367,0 24.0028057,0.498822736 24.0028057,1.11527186 L24.0028057,23.6352681 C10.6693507,24.2214938 0,35.3635933 0,48.9793854 C0,49.4684061 0.0172433949,49.9541591 0.0441862408,50.4366449 C0.0775952771,51.0269549 0.560949211,51.4887471 1.14614699,51.4887471 L16.0756938,51.4887471 C16.6231717,56.0369652 20.4606353,59.5744681 25.1063831,59.5744681 C29.7521309,59.5744681 33.5895945,56.0369652 34.1370723,51.4887471 L49.0671581,51.4887471 C49.6523556,51.488747 50.1357096,51.0269549 50.1691186,50.4366449 Z M25.106383,57.3439243 C21.6795277,57.3439243 18.8367924,54.8027054 18.3057497,51.488747 L31.9070163,51.488747 C31.3759735,54.8027055 28.5332383,57.3439243 25.106383,57.3439243 Z M48.003456,49.2582033 L2.20930994,49.2582033 C2.20769342,49.165627 2.20715455,49.0730508 2.20715455,48.9793853 C2.20715455,36.219107 12.4799071,25.8374943 25.106383,25.8374943 C37.7328588,25.8374943 48.0056114,36.219107 48.0056114,48.9793853 C48.0056114,49.0730508 48.0050725,49.165627 48.003456,49.2582033 Z" id="Shape" fill-rule="nonzero"></path>
            <path d="M24.6808511,70.8717381 L24.6808511,78.915496 C24.6808511,79.5149387 25.0619182,80 25.5319149,80 C26.0019116,80 26.3829787,79.5149387 26.3829787,78.915496 L26.3829787,70.8717381 C26.3829787,70.2722954 26.0019116,69.787234 25.5319149,69.787234 C25.0619182,69.787234 24.6808511,70.2722954 24.6808511,70.8717381 Z" id="Path"></path>
            <path d="M9.97783697,63.3111702 L2.8856383,70.4033687 C2.44237589,70.8466312 2.44237589,71.5647163 2.8856383,72.0079787 C3.10726951,72.2296099 3.39760642,72.3404255 3.68794322,72.3404255 C3.97828002,72.3404255 4.26861704,72.22961 4.49024814,72.0079787 L11.5824468,64.9157801 C12.0257092,64.4725177 12.0257092,63.7544326 11.5824468,63.3111702 C11.1391844,62.8679078 10.4210994,62.8679078 9.97783697,63.3111702 Z" id="Path"></path>
            <path d="M38.6318776,63.3127286 C38.1865373,63.7580689 38.1865373,64.4795201 38.6318776,64.9248604 L46.5645013,72.8574841 C46.7871714,73.0801542 47.0788693,73.1914894 47.3705671,73.1914894 C47.6622649,73.1914894 47.9539629,73.0801542 48.1766331,72.8574841 C48.6219734,72.4121438 48.6219734,71.6906926 48.1766331,71.2453523 L40.2440094,63.3127286 C39.7986691,62.8673883 39.0772178,62.8673883 38.6318776,63.3127286 Z" id="Path"></path>
        </g>
    </g>
</svg>