<?xml version="1.0" encoding="UTF-8"?>
<svg width="150px" height="150px" viewBox="0 0 150 150" version="1.1" xmlns="http://www.w3.org/2000/svg" xmlns:xlink="http://www.w3.org/1999/xlink">
    <!-- Generator: Sketch 52.2 (67145) - http://www.bohemiancoding.com/sketch -->
    <title>shelving</title>
    <desc>Created with Sketch.</desc>
    <defs>
        <circle id="path-1" cx="75" cy="75" r="74"></circle>
        <filter x="-4.7%" y="-3.4%" width="109.5%" height="109.5%" filterUnits="objectBoundingBox" id="filter-2">
            <feOffset dx="0" dy="2" in="SourceAlpha" result="shadowOffsetOuter1"></feOffset>
            <feGaussianBlur stdDeviation="2" in="shadowOffsetOuter1" result="shadowBlurOuter1"></feGaussianBlur>
            <feColorMatrix values="0 0 0 0 0.737457483   0 0 0 0 0.737457483   0 0 0 0 0.737457483  0 0 0 0.5 0" type="matrix" in="shadowBlurOuter1"></feColorMatrix>
        </filter>
    </defs>
    <g id="shelving" stroke="none" stroke-width="1" fill="none" fill-rule="evenodd">
        <g id="Oval">
            <use fill="black" fill-opacity="1" filter="url(#filter-2)" xlink:href="#path-1"></use>
            <use fill="#ECF0F1" fill-rule="evenodd" xlink:href="#path-1"></use>
        </g>
        <g id="noun_shelving_1982115" transform="translate(48.000000, 48.000000)" fill="#000000" fill-rule="nonzero">
            <path d="M54.3125,0 L48.640625,0 C48.2609558,0 47.953125,0.307830806 47.953125,0.6875 L47.953125,15.9128723 L31.0234375,15.9128723 L31.0234375,0.6875 C31.0234375,0.307830806 30.7156067,0 30.3359375,0 L24.6640625,0 C24.2843933,0 23.9765625,0.307830806 23.9765625,0.6875 L23.9765625,15.9128723 L7.046875,15.9128723 L7.046875,0.6875 C7.046875,0.307830806 6.73904419,0 6.359375,0 L0.6875,0 C0.307830806,0 0,0.307830806 0,0.6875 L0,48.8125 C0,49.1921692 0.307830806,49.5 0.6875,49.5 L2.8359375,49.5 L2.8359375,53.625 L0.6875,53.625 C0.307830806,53.625 0,53.9328308 0,54.3125 C0,54.6921692 0.307830806,55 0.6875,55 L6.359375,55 C6.73904419,55 7.046875,54.6921692 7.046875,54.3125 C7.046875,53.9328308 6.73904419,53.625 6.359375,53.625 L4.2109375,53.625 L4.2109375,49.5 L6.359375,49.5 C6.73904419,49.5 7.046875,49.1921692 7.046875,48.8125 L7.046875,46.234375 L23.9765625,46.234375 L23.9765625,48.8125 C23.9765625,49.1921692 24.2843933,49.5 24.6640625,49.5 L26.8125,49.5 L26.8125,53.625 L24.6640625,53.625 C24.2843933,53.625 23.9765625,53.9328308 23.9765625,54.3125 C23.9765625,54.6921692 24.2843933,55 24.6640625,55 L30.3359375,55 C30.7156067,55 31.0234375,54.6921692 31.0234375,54.3125 C31.0234375,53.9328308 30.7156067,53.625 30.3359375,53.625 L28.1875,53.625 L28.1875,49.5 L30.3359375,49.5 C30.7156067,49.5 31.0234375,49.1921692 31.0234375,48.8125 L31.0234375,46.234375 L47.953125,46.234375 L47.953125,48.8125 C47.953125,49.1921692 48.2609558,49.5 48.640625,49.5 L50.7890625,49.5 L50.7890625,53.625 L48.640625,53.625 C48.2609558,53.625 47.953125,53.9328308 47.953125,54.3125 C47.953125,54.6921692 48.2609558,55 48.640625,55 L54.3125,55 C54.6921692,55 55,54.6921692 55,54.3125 C55,53.9328308 54.6921692,53.625 54.3125,53.625 L52.1640625,53.625 L52.1640625,49.5 L54.3125,49.5 C54.6921692,49.5 55,49.1921692 55,48.8125 L55,0.6875 C55,0.307830806 54.6921692,0 54.3125,0 Z M31.0234375,22.7019348 L47.953125,22.7019348 L47.953125,39.4453125 L31.0234375,39.4453125 L31.0234375,22.7019348 Z M47.953125,17.2878723 L47.953125,21.3269348 L31.0234375,21.3269348 L31.0234375,17.2878723 L47.953125,17.2878723 Z M7.046875,22.7019348 L23.9765625,22.7019348 L23.9765625,39.4453125 L7.046875,39.4453125 L7.046875,22.7019348 Z M23.9765625,17.2878723 L23.9765625,21.3269348 L7.046875,21.3269348 L7.046875,17.2878723 L23.9765625,17.2878723 Z M5.671875,48.125 L1.375,48.125 L1.375,1.375 L5.671875,1.375 L5.671875,48.125 Z M7.046875,44.859375 L7.046875,40.8203125 L23.9765625,40.8203125 L23.9765625,44.859375 L7.046875,44.859375 Z M29.6484375,48.125 L25.3515625,48.125 L25.3515625,1.375 L29.6484375,1.375 L29.6484375,48.125 Z M31.0234375,44.859375 L31.0234375,40.8203125 L47.953125,40.8203125 L47.953125,44.859375 L31.0234375,44.859375 Z M53.625,48.125 L49.328125,48.125 L49.328125,1.375 L53.625,1.375 L53.625,48.125 Z" id="Shape"></path>
        </g>
    </g>
</svg>