<?xml version="1.0" encoding="UTF-8"?>
<svg width="150px" height="150px" viewBox="0 0 150 150" version="1.1" xmlns="http://www.w3.org/2000/svg" xmlns:xlink="http://www.w3.org/1999/xlink">
    <!-- Generator: Sketch 52.2 (67145) - http://www.bohemiancoding.com/sketch -->
    <title>toilet</title>
    <desc>Created with Sketch.</desc>
    <defs>
        <circle id="path-1" cx="75" cy="75" r="74"></circle>
        <filter x="-4.7%" y="-3.4%" width="109.5%" height="109.5%" filterUnits="objectBoundingBox" id="filter-2">
            <feOffset dx="0" dy="2" in="SourceAlpha" result="shadowOffsetOuter1"></feOffset>
            <feGaussianBlur stdDeviation="2" in="shadowOffsetOuter1" result="shadowBlurOuter1"></feGaussianBlur>
            <feColorMatrix values="0 0 0 0 0.737457483   0 0 0 0 0.737457483   0 0 0 0 0.737457483  0 0 0 0.5 0" type="matrix" in="shadowBlurOuter1"></feColorMatrix>
        </filter>
    </defs>
    <g id="toilet" stroke="none" stroke-width="1" fill="none" fill-rule="evenodd">
        <g id="Oval">
            <use fill="black" fill-opacity="1" filter="url(#filter-2)" xlink:href="#path-1"></use>
            <use fill="#ECF0F1" fill-rule="evenodd" xlink:href="#path-1"></use>
        </g>
        <g id="noun_Toilet_1467938" transform="translate(51.000000, 43.000000)" fill="#000000">
            <path d="M45.5056424,37.0632595 C46.6843669,35.1571995 47.3072307,32.9654948 47.3072307,30.7253011 C47.3072307,29.7930993 46.7672391,28.9919282 45.9881084,28.5950894 C45.6724888,25.8752951 43.3580187,23.7561036 40.5549114,23.7561036 L18.7753975,23.7561036 C17.3639256,23.7561036 16.0796272,24.2978585 15.1078628,25.1785957 L15.1078628,8.3533394 C15.1078628,4.01841917 11.5809463,0.491061819 7.24558521,0.491061819 L2.29529499,0.491061819 C1.06367336,0.491061819 0.0617134375,1.49346257 0.0617134375,2.72508419 L0.0617134375,29.2291939 L0.0617134375,34.230618 C0.0617134375,36.8216961 0.728217299,39.3872072 1.98937321,41.6503229 C3.65431056,44.6390111 6.31195076,47.0061579 9.47343628,48.3162436 C10.6111655,48.7879097 11.3464357,49.8881701 11.3464357,51.1197918 L11.3464357,63.8362632 C11.3464357,64.3352595 11.7506579,64.739041 12.2492134,64.739041 L23.3836196,64.739041 C23.8821751,64.739041 24.2863974,64.3352595 24.2863974,63.8362632 L24.2863974,49.376831 C33.0069308,49.0814887 40.8894857,44.5261638 45.5056424,37.0632595 Z M18.7753974,25.561659 L40.5549113,25.561659 C42.2656928,25.561659 43.7066989,26.7395019 44.1100396,28.326416 L43.4889391,28.326416 L15.2337138,28.326416 C15.6385973,26.741706 17.0661587,25.561659 18.7753974,25.561659 Z M1.8672689,2.7250841 C1.8672689,2.48881019 2.05946181,2.29661728 2.2952949,2.29661728 L7.24558512,2.29661728 C10.5851576,2.29661728 13.3023071,5.01376678 13.3023071,8.35333931 L13.3023071,28.326416 L1.8672689,28.326416 L1.8672689,2.7250841 Z M23.3836195,47.586263 C22.885064,47.586263 22.4808418,47.9900445 22.4808418,48.4890408 L22.4808418,62.9334852 L13.1519911,62.9334852 L13.1519911,51.1197917 C13.1519911,49.1546631 11.9789972,47.3993598 10.1641846,46.6482205 C7.37738715,45.4932997 5.0344849,43.4065077 3.56658936,40.7722303 C2.45486791,38.7771267 1.8672689,36.5148926 1.8672689,34.2306179 L1.8672689,30.1319715 L14.2050849,30.1319715 L43.4889391,30.1319715 L44.9083455,30.1319715 C45.2354262,30.1319715 45.5016751,30.3982204 45.5016751,30.725301 C45.5016751,32.6295979 44.9718221,34.4924587 43.9698623,36.1128742 C39.5265028,43.2971869 31.8308513,47.586263 23.3836195,47.586263 Z" id="Shape" fill-rule="nonzero"></path>
            <path d="M17.9669529,12.1143256 L17.9669529,8.42827691 C17.9669529,7.92928058 17.5627306,7.52549913 17.0641751,7.52549913 C16.5656196,7.52549913 16.1613973,7.92928058 16.1613973,8.42827691 L16.1613973,12.1143256 C16.1613973,12.613322 16.5656196,13.0171034 17.0641751,13.0171034 C17.5627306,13.0171034 17.9669529,12.613322 17.9669529,12.1143256 Z" id="Path"></path>
        </g>
    </g>
</svg>