<?xml version="1.0" encoding="UTF-8"?>
<svg width="150px" height="150px" viewBox="0 0 150 150" version="1.1" xmlns="http://www.w3.org/2000/svg" xmlns:xlink="http://www.w3.org/1999/xlink">
    <!-- Generator: Sketch 52.2 (67145) - http://www.bohemiancoding.com/sketch -->
    <title>wheelchair</title>
    <desc>Created with Sketch.</desc>
    <defs>
        <circle id="path-1" cx="75" cy="75" r="74"></circle>
        <filter x="-4.7%" y="-3.4%" width="109.5%" height="109.5%" filterUnits="objectBoundingBox" id="filter-2">
            <feOffset dx="0" dy="2" in="SourceAlpha" result="shadowOffsetOuter1"></feOffset>
            <feGaussianBlur stdDeviation="2" in="shadowOffsetOuter1" result="shadowBlurOuter1"></feGaussianBlur>
            <feColorMatrix values="0 0 0 0 0.737457483   0 0 0 0 0.737457483   0 0 0 0 0.737457483  0 0 0 0.5 0" type="matrix" in="shadowBlurOuter1"></feColorMatrix>
        </filter>
    </defs>
    <g id="wheelchair" stroke="none" stroke-width="1" fill="none" fill-rule="evenodd">
        <g id="Oval">
            <use fill="black" fill-opacity="1" filter="url(#filter-2)" xlink:href="#path-1"></use>
            <use fill="#ECF0F1" fill-rule="evenodd" xlink:href="#path-1"></use>
        </g>
        <g id="noun_wheelchair_1068449" transform="translate(51.000000, 47.000000)" fill="#000000">
            <g id="Group">
                <path d="M45.69125,40.321875 C45.2925,39.8303125 44.5671875,39.7546875 44.075625,40.156875 L41.504375,42.246875 L32.9725,34.69125 C32.7628125,34.505625 32.4878125,34.4025 32.2059375,34.4025 L18.239375,34.4025 L18.239375,18.90625 L35.15875,18.90625 C35.7946875,18.90625 36.3103125,18.3940625 36.3103125,17.758125 C36.3103125,17.125625 35.7946875,16.61 35.15875,16.61 L35.15875,16.6065625 L17.0946875,16.6065625 C16.78875,16.6065625 16.493125,16.7303125 16.28,16.946875 C16.066875,17.1565625 15.943125,17.455625 15.943125,17.7546875 L15.943125,35.5540625 C15.943125,35.853125 16.066875,36.1521875 16.28,36.3653125 C16.4965625,36.581875 16.78875,36.7021875 17.0946875,36.7021875 L31.7728125,36.7021875 L40.71375,44.61875 C40.9303125,44.81125 41.201875,44.9075 41.476875,44.9075 C41.73125,44.9075 41.9890625,44.8215625 42.2021875,44.6496875 L45.533125,41.9409375 C46.02125,41.5353125 46.0934375,40.816875 45.69125,40.321875 Z" id="Path"></path>
                <path d="M17.03625,14.953125 C20.44625,14.953125 23.2134375,12.1859375 23.2134375,8.7725 C23.2134375,5.355625 20.44625,2.5884375 17.03625,2.5884375 C13.619375,2.5884375 10.8521875,5.355625 10.84875,8.7725 C10.8521875,12.1859375 13.619375,14.953125 17.03625,14.953125 Z M17.03625,4.8846875 C19.1778125,4.8915625 20.9103125,6.6240625 20.9171875,8.7725 C20.9103125,10.9175 19.1778125,12.6534375 17.03625,12.656875 C14.8878125,12.6534375 13.151875,10.9175 13.1484375,8.7725 C13.151875,6.6275 14.8878125,4.8915625 17.03625,4.8846875 Z" id="Shape" fill-rule="nonzero"></path>
                <path d="M28.5415625,43.0890625 C26.4515625,47.25875 22.1546875,50.1153125 17.17375,50.111875 C10.16125,50.1015625 4.4825,44.42625 4.46875,37.41375 C4.46875,32.305625 7.4903125,27.9021875 11.8353125,25.884375 C12.4128125,25.61625 12.6603125,24.935625 12.3921875,24.358125 C12.1309375,23.7840625 11.446875,23.533125 10.869375,23.80125 C5.740625,26.18 2.1759375,31.3809375 2.1759375,37.41375 C2.1759375,45.698125 8.8928125,52.4115625 17.1771875,52.4115625 C23.0484375,52.4115625 28.1359375,49.039375 30.59375,44.1203125 C30.8790625,43.553125 30.64875,42.8621875 30.085,42.5803125 C29.514375,42.2915625 28.8234375,42.521875 28.5415625,43.0890625 Z" id="Path"></path>
            </g>
        </g>
    </g>
</svg>