<?xml version="1.0" encoding="UTF-8"?>
<svg width="150px" height="150px" viewBox="0 0 150 150" version="1.1" xmlns="http://www.w3.org/2000/svg" xmlns:xlink="http://www.w3.org/1999/xlink">
    <!-- Generator: Sketch 52.2 (67145) - http://www.bohemiancoding.com/sketch -->
    <title>wifi</title>
    <desc>Created with Sketch.</desc>
    <defs>
        <circle id="path-1" cx="75" cy="75" r="74"></circle>
        <filter x="-4.7%" y="-3.4%" width="109.5%" height="109.5%" filterUnits="objectBoundingBox" id="filter-2">
            <feOffset dx="0" dy="2" in="SourceAlpha" result="shadowOffsetOuter1"></feOffset>
            <feGaussianBlur stdDeviation="2" in="shadowOffsetOuter1" result="shadowBlurOuter1"></feGaussianBlur>
            <feColorMatrix values="0 0 0 0 0.737457483   0 0 0 0 0.737457483   0 0 0 0 0.737457483  0 0 0 0.5 0" type="matrix" in="shadowBlurOuter1"></feColorMatrix>
        </filter>
    </defs>
    <g id="wifi" stroke="none" stroke-width="1" fill="none" fill-rule="evenodd">
        <g id="Oval">
            <use fill="black" fill-opacity="1" filter="url(#filter-2)" xlink:href="#path-1"></use>
            <use fill="#ECF0F1" fill-rule="evenodd" xlink:href="#path-1"></use>
        </g>
        <g id="noun_wifi_2019814" transform="translate(41.000000, 49.000000)" fill="#000000">
            <circle id="Oval" cx="34.5" cy="49.5" r="3.5"></circle>
            <path d="M56.5492744,28 C56.1807168,28 55.8858707,27.8559738 55.5910246,27.6399345 C43.5023356,17.2700491 25.4430137,17.2700491 13.3543247,27.6399345 C12.6909211,28.0720131 11.8063829,27.9279869 11.2904022,27.3518822 C10.8481331,26.7757774 10.9218446,25.9836334 11.4378253,25.4795417 C24.632187,14.1734861 44.3131623,14.1734861 57.5075241,25.4795417 C58.0972162,25.9836334 58.1709278,26.9198036 57.6549471,27.4959083 C57.4338126,27.8559738 56.9915435,28 56.5492744,28 Z" id="Path"></path>
            <path d="M67.5652306,16 C67.1977815,16 66.8303325,15.8527043 66.609863,15.6317606 C48.4578783,-1.23360184 20.531748,-1.23360184 2.37976331,15.5581128 C1.71835496,16.0736479 0.836477162,16 0.322048446,15.3371692 C-0.118890453,14.7479862 -0.118890453,13.9378596 0.395538263,13.4223245 C19.5763804,-4.47410817 49.3397561,-4.47410817 68.5205982,13.4223245 C69.1085168,13.9378596 69.1820066,14.8952819 68.5940881,15.4844649 C68.3736186,15.7790564 68.0061695,16 67.5652306,16 Z" id="Path"></path>
            <path d="M45.4949777,39.9836213 C45.1970909,39.9836213 44.8992041,39.9053735 44.6013173,39.6706299 C38.5691095,34.9757584 30.3772224,34.9757584 24.3450146,39.6706299 C23.6747692,40.2183649 22.7066371,40.0618692 22.2598069,39.3576385 C21.8129767,38.6534077 21.9619201,37.7144334 22.5576937,37.1666984 C29.6325053,31.6111005 39.3138265,31.6111005 46.3886381,37.1666984 C47.0588834,37.7144334 47.2078268,38.6534077 46.6865249,39.3576385 C46.3886381,39.7488778 45.9418079,39.9836213 45.4949777,39.9836213 Z" id="Path"></path>
        </g>
    </g>
</svg>